<svg xmlns="http://www.w3.org/2000/svg" data-name="Layer 1" viewBox="0 0 64 64" id="network"><path fill="#6a88bf" d="M15.946 27.919C14.9 25.71 11.3 18.108 9.009 13.032l1.822-.824c2.289 5.062 5.877 12.648 6.923 14.854zM10.989 51.867l-.9-.412L9.08 51.46a1.046 1.046 0 0 1 .091-.427l6.84-14.9.9.412 1.011-.005v.01a1 1 0 0 1-.091.417zM53.011 51.867l-6.84-14.9a1 1 0 0 1-.091-.417l1.011 0 .9-.412 6.84 14.9a1 1 0 0 1 .091.417l-1.011 0zM47.989 27.867l-.9-.412-1.011.005a1.046 1.046 0 0 1 .091-.427l6.84-14.9.9.412 1.011-.005v.01a1 1 0 0 1-.091.417z"></path><rect width="16" height="2" x="24" y="31" fill="#6a88bf"></rect><circle cx="8" cy="8" r="6" fill="#80a7e6"></circle><circle cx="8" cy="56" r="6" fill="#80a7e6"></circle><circle cx="19" cy="32" r="6" fill="#ff8188"></circle><circle cx="56" cy="8" r="6" fill="#80a7e6"></circle><circle cx="56" cy="56" r="6" fill="#80a7e6"></circle><circle cx="45" cy="32" r="6" fill="#ff8188"></circle></svg>